<svg width="191" height="42" viewBox="0 0 191 42" fill="none" xmlns="http://www.w3.org/2000/svg">
<path d="M0 41.18V0.799954H32.94V7.03995H7.02V34.94H32.94V41.18H0ZM45.36 41.78V0.199951H52.38V41.78H45.36Z" fill="white"/>
<path d="M72.36 12.38L76.98 34.94H78.72L83.4 12.38H91.02L85.92 34.94H93.54V41.18H61.5V34.94H69.84L64.74 12.38H72.36ZM102.96 41.78V0.199951H109.98V12.38H116.46V18.62H109.98V41.78H102.96ZM61.5 7.03995V0.799954H93.54V7.03995H61.5Z" fill="white"/>
<path d="M119.64 31.16C119.64 25.58 124.02 21.2 129.36 21.2H162.96C168.3 21.2 172.62 25.58 172.62 31.16C172.62 36.8 168.3 41.18 162.96 41.18H129.36C124.02 41.18 119.64 36.8 119.64 31.16ZM120 18.98V0.799954H159.3V18.98H120ZM126.84 31.16C126.84 33.32 128.52 34.94 130.5 34.94H161.7C163.74 34.94 165.36 33.32 165.36 31.16C165.36 29.06 163.74 27.44 161.7 27.44H130.5C128.52 27.44 126.84 29.06 126.84 31.16ZM127.02 7.03995V12.74H152.28V7.03995H127.02ZM165.36 18.98V0.199951H172.38V18.98H165.36Z" fill="white"/>
<path d="M190.56 29.54H183.66V0.199951H190.56V29.54ZM183.66 33.74H190.56V40.58H183.66V33.74Z" fill="white"/>
</svg>
