<svg width="36" height="36" viewBox="0 0 36 36" fill="none" xmlns="http://www.w3.org/2000/svg">
<path d="M2.41789 31.1054C2.02737 31.4959 2.02737 32.1291 2.41789 32.5196C2.80842 32.9101 3.44158 32.9101 3.83211 32.5196L2.41789 31.1054ZM11.625 23.3125L12.3321 22.6054C11.9416 22.2149 11.3084 22.2149 10.9179 22.6054L11.625 23.3125ZM15.875 27.5625L15.1679 28.2696C15.5584 28.6601 16.1916 28.6601 16.5821 28.2696L15.875 27.5625ZM25.4375 18L26.1446 17.2929C25.7541 16.9024 25.1209 16.9024 24.7304 17.2929L25.4375 18ZM33.2304 27.2071C33.6209 27.5976 34.2541 27.5976 34.6446 27.2071C35.0351 26.8166 35.0351 26.1834 34.6446 25.7929L33.2304 27.2071ZM3.83211 32.5196L12.3321 24.0196L10.9179 22.6054L2.41789 31.1054L3.83211 32.5196ZM10.9179 24.0196L15.1679 28.2696L16.5821 26.8554L12.3321 22.6054L10.9179 24.0196ZM16.5821 28.2696L26.1446 18.7071L24.7304 17.2929L15.1679 26.8554L16.5821 28.2696ZM24.7304 18.7071L33.2304 27.2071L34.6446 25.7929L26.1446 17.2929L24.7304 18.7071ZM7.375 2H28.625V0H7.375V2ZM34 7.375V28.625H36V7.375H34ZM28.625 34H7.375V36H28.625V34ZM2 28.625V7.375H0V28.625H2ZM7.375 34C4.40647 34 2 31.5935 2 28.625H0C0 32.6981 3.3019 36 7.375 36V34ZM34 28.625C34 31.5935 31.5935 34 28.625 34V36C32.6981 36 36 32.6981 36 28.625H34ZM28.625 2C31.5935 2 34 4.40647 34 7.375H36C36 3.3019 32.6981 0 28.625 0V2ZM7.375 0C3.3019 0 0 3.3019 0 7.375H2C2 4.40647 4.40647 2 7.375 2V0ZM12.75 10.5625C12.75 11.7706 11.7706 12.75 10.5625 12.75V14.75C12.8752 14.75 14.75 12.8752 14.75 10.5625H12.75ZM10.5625 12.75C9.35438 12.75 8.375 11.7706 8.375 10.5625H6.375C6.375 12.8752 8.24981 14.75 10.5625 14.75V12.75ZM8.375 10.5625C8.375 9.35438 9.35438 8.375 10.5625 8.375V6.375C8.24981 6.375 6.375 8.24981 6.375 10.5625H8.375ZM10.5625 8.375C11.7706 8.375 12.75 9.35438 12.75 10.5625H14.75C14.75 8.24981 12.8752 6.375 10.5625 6.375V8.375Z" fill="#79818F"/>
</svg>
