<svg width="39" height="35" viewBox="0 0 39 35" fill="none" xmlns="http://www.w3.org/2000/svg">
<path d="M10.25 6.42466V7.42466C10.6021 7.42466 10.9283 7.23949 11.1087 6.93714L10.25 6.42466ZM13.4875 1V0C13.1354 0 12.8092 0.185171 12.6288 0.487519L13.4875 1ZM25.5125 1L26.3712 0.487519C26.1908 0.185171 25.8646 0 25.5125 0V1ZM28.75 6.42466L27.8913 6.93714C28.0717 7.23949 28.3979 7.42466 28.75 7.42466V6.42466ZM2 29.4795V10.9452H0V29.4795H2ZM5.625 7.42466H10.25V5.42466H5.625V7.42466ZM11.1087 6.93714L14.3462 1.51248L12.6288 0.487519L9.3913 5.91218L11.1087 6.93714ZM13.4875 2H25.5125V0H13.4875V2ZM24.6538 1.51248L27.8913 6.93714L29.6087 5.91218L26.3712 0.487519L24.6538 1.51248ZM28.75 7.42466H33.375V5.42466H28.75V7.42466ZM37 10.9452V29.4795H39V10.9452H37ZM37 29.4795C37 31.4024 35.3987 33 33.375 33V35C36.4599 35 39 32.5498 39 29.4795H37ZM33.375 7.42466C35.3987 7.42466 37 9.02227 37 10.9452H39C39 7.87488 36.4599 5.42466 33.375 5.42466V7.42466ZM2 10.9452C2 9.02227 3.60131 7.42466 5.625 7.42466V5.42466C2.54006 5.42466 0 7.87487 0 10.9452H2ZM5.625 33C3.60131 33 2 31.4024 2 29.4795H0C0 32.5498 2.54006 35 5.625 35V33ZM25.4375 19.0822C25.4375 22.2534 22.8008 24.863 19.5 24.863V26.863C23.8621 26.863 27.4375 23.4008 27.4375 19.0822H25.4375ZM19.5 24.863C16.1992 24.863 13.5625 22.2534 13.5625 19.0822H11.5625C11.5625 23.4008 15.1379 26.863 19.5 26.863V24.863ZM13.5625 19.0822C13.5625 15.9109 16.1992 13.3014 19.5 13.3014V11.3014C15.1379 11.3014 11.5625 14.7636 11.5625 19.0822H13.5625ZM19.5 13.3014C22.8008 13.3014 25.4375 15.9109 25.4375 19.0822H27.4375C27.4375 14.7636 23.8621 11.3014 19.5 11.3014V13.3014ZM33.375 33H5.625V35H33.375V33Z" fill="#79818F"/>
</svg>
